<svg width="174" height="183" viewBox="0 0 174 183" fill="none" xmlns="http://www.w3.org/2000/svg">
<path d="M111.633 75.2636L146.433 60.4283C134.327 31.9977 106.01 15.2837 76.8184 16.6377C63.6712 17.1941 55.2956 30.8608 60.4759 42.9499L60.8101 43.7298C63.818 50.7492 70.8927 54.8721 78.4877 54.4639C92.3406 53.759 105.877 61.6518 111.633 75.2636Z" fill="#282531"/>
<path d="M93.6183 120.294C76.1997 127.758 56.0522 119.698 48.5882 102.279L14.7909 116.761C14.2709 116.984 14.0109 117.634 14.2708 118.061C30.2387 154.068 72.1865 170.635 108.546 155.131C145.111 139.386 162.048 97.0483 146.433 60.4283L111.633 75.2636C119.097 92.6822 111.037 112.83 93.6183 120.294Z" fill="white"/>
<path d="M52.933 109.725L63.2951 104.285L61.0113 98.9556L45.0969 105.083L14.1779 118.024C13.6952 117.077 14.1781 115.87 15.088 115.48L43.8158 102.093L59.136 94.7588L56.8522 89.4292L12.7857 109.928C12.0057 110.262 11.1144 109.798 10.7802 109.018C10.5388 108.275 10.8731 107.439 11.5602 107.068L57.2239 84.1926L65.5433 80.6277C68.143 79.5137 70.9842 79.1424 73.7325 79.8111C76.8892 80.5354 79.4146 82.2997 81.2343 84.751L140.398 57.4754C142.645 56.4357 145.375 57.42 146.415 59.667L147.065 61.5425L83.4624 89.9505C84.5205 95.6514 81.5676 101.686 75.9781 104.082L54.827 111.991C54.827 111.991 54.437 111.62 52.933 109.725Z" fill="#282531"/>
<path d="M36.4428 117.022C35.5711 116.674 34.5817 117.098 34.233 117.969C33.8843 118.841 34.3082 119.83 35.1799 120.179C36.0516 120.528 37.041 120.104 37.3897 119.232C37.7385 118.361 37.3145 117.371 36.4428 117.022Z" fill="#282531"/>
<path d="M51.1316 111.805L51.243 112.065C51.5772 112.845 51.2429 113.681 50.463 114.015L43.9635 116.8C43.1836 117.134 42.348 116.8 42.0137 116.02L41.9023 115.76C41.5681 114.98 41.9024 114.144 42.6824 113.81L49.1818 111.025C49.8689 110.654 50.7974 111.025 51.1316 111.805Z" fill="#282531"/>
</svg>
